<mxfile host="app.diagrams.net" modified="2024-05-31T16:38:27.896Z" agent="Mozilla/5.0 (Windows NT 10.0; Win64; x64) AppleWebKit/537.36 (KHTML, like Gecko) Chrome/125.0.0.0 Safari/537.36" etag="WUmrhn2oKkiL6grR1qha" version="24.4.9" type="device">
  <diagram name="Page-1" id="zuhQkFO9fgSmTVKcTVLM">
    <mxGraphModel dx="1613" dy="696" grid="1" gridSize="10" guides="1" tooltips="1" connect="1" arrows="1" fold="1" page="1" pageScale="1" pageWidth="850" pageHeight="1100" math="0" shadow="0">
      <root>
        <mxCell id="0" />
        <mxCell id="1" parent="0" />
        <mxCell id="cQwfHmocI9U_DyVpqtuw-1" value="" style="rounded=0;whiteSpace=wrap;html=1;" parent="1" vertex="1">
          <mxGeometry x="198" y="160" width="600" height="530" as="geometry" />
        </mxCell>
        <mxCell id="cQwfHmocI9U_DyVpqtuw-9" value="" style="rounded=0;whiteSpace=wrap;html=1;" parent="1" vertex="1">
          <mxGeometry x="198" y="650" width="599" height="40" as="geometry" />
        </mxCell>
        <mxCell id="cQwfHmocI9U_DyVpqtuw-10" value="Footer for the company like copyright, terms policy, contact, etc." style="rounded=1;whiteSpace=wrap;html=1;fillColor=#e1d5e7;strokeColor=#9673a6;" parent="1" vertex="1">
          <mxGeometry x="198" y="650" width="600" height="40" as="geometry" />
        </mxCell>
        <mxCell id="cQwfHmocI9U_DyVpqtuw-11" value="&lt;font style=&quot;font-size: 16px;&quot;&gt;Dashboard&lt;/font&gt;" style="rounded=0;whiteSpace=wrap;html=1;fillColor=#dae8fc;strokeColor=#6c8ebf;" parent="1" vertex="1">
          <mxGeometry x="198" y="160" width="600" height="40" as="geometry" />
        </mxCell>
        <mxCell id="cQwfHmocI9U_DyVpqtuw-16" value="&lt;span style=&quot;font-family: &amp;quot;Google Sans&amp;quot;, arial, sans-serif; text-align: left; background-color: rgb(255, 255, 255);&quot;&gt;&lt;font style=&quot;font-size: 25px;&quot;&gt;â‰¡&lt;/font&gt;&lt;/span&gt;" style="rounded=0;whiteSpace=wrap;html=1;" parent="1" vertex="1">
          <mxGeometry x="198" y="160" width="52" height="40" as="geometry" />
        </mxCell>
        <mxCell id="JP3Zxvr-SJPavZB7TWT2-2" value="" style="rounded=0;whiteSpace=wrap;html=1;" vertex="1" parent="1">
          <mxGeometry x="30" y="160" width="130" height="490" as="geometry" />
        </mxCell>
        <mxCell id="JP3Zxvr-SJPavZB7TWT2-3" value="" style="rounded=0;whiteSpace=wrap;html=1;" vertex="1" parent="1">
          <mxGeometry x="30" y="160" width="130" height="100" as="geometry" />
        </mxCell>
        <mxCell id="JP3Zxvr-SJPavZB7TWT2-4" value="" style="ellipse;whiteSpace=wrap;html=1;aspect=fixed;" vertex="1" parent="1">
          <mxGeometry x="45" y="172" width="40" height="40" as="geometry" />
        </mxCell>
        <mxCell id="JP3Zxvr-SJPavZB7TWT2-5" value="USERNAME" style="text;html=1;align=center;verticalAlign=middle;whiteSpace=wrap;rounded=0;" vertex="1" parent="1">
          <mxGeometry x="45" y="223" width="60" height="30" as="geometry" />
        </mxCell>
        <mxCell id="JP3Zxvr-SJPavZB7TWT2-6" value="" style="rounded=0;whiteSpace=wrap;html=1;" vertex="1" parent="1">
          <mxGeometry x="30" y="260" width="130" height="40" as="geometry" />
        </mxCell>
        <mxCell id="JP3Zxvr-SJPavZB7TWT2-7" value="" style="rounded=0;whiteSpace=wrap;html=1;" vertex="1" parent="1">
          <mxGeometry x="30" y="300" width="130" height="40" as="geometry" />
        </mxCell>
        <mxCell id="JP3Zxvr-SJPavZB7TWT2-8" value="" style="rounded=0;whiteSpace=wrap;html=1;" vertex="1" parent="1">
          <mxGeometry x="30" y="340" width="130" height="40" as="geometry" />
        </mxCell>
        <mxCell id="JP3Zxvr-SJPavZB7TWT2-9" value="" style="rounded=0;whiteSpace=wrap;html=1;" vertex="1" parent="1">
          <mxGeometry x="31" y="381" width="130" height="37" as="geometry" />
        </mxCell>
        <mxCell id="JP3Zxvr-SJPavZB7TWT2-10" value="HOME" style="text;html=1;align=center;verticalAlign=middle;whiteSpace=wrap;rounded=0;" vertex="1" parent="1">
          <mxGeometry x="45" y="265" width="60" height="30" as="geometry" />
        </mxCell>
        <mxCell id="JP3Zxvr-SJPavZB7TWT2-11" value="ASSESSMENTS" style="text;html=1;align=center;verticalAlign=middle;whiteSpace=wrap;rounded=0;" vertex="1" parent="1">
          <mxGeometry x="64" y="304" width="60" height="30" as="geometry" />
        </mxCell>
        <mxCell id="JP3Zxvr-SJPavZB7TWT2-12" value="HELP" style="text;html=1;align=center;verticalAlign=middle;whiteSpace=wrap;rounded=0;" vertex="1" parent="1">
          <mxGeometry x="50" y="342" width="60" height="30" as="geometry" />
        </mxCell>
        <mxCell id="JP3Zxvr-SJPavZB7TWT2-13" value="UPDATE PROFILE" style="text;html=1;align=center;verticalAlign=middle;whiteSpace=wrap;rounded=0;" vertex="1" parent="1">
          <mxGeometry x="42" y="384" width="106" height="30" as="geometry" />
        </mxCell>
        <mxCell id="JP3Zxvr-SJPavZB7TWT2-15" value="" style="rounded=0;whiteSpace=wrap;html=1;" vertex="1" parent="1">
          <mxGeometry x="31" y="418" width="130" height="40" as="geometry" />
        </mxCell>
        <mxCell id="JP3Zxvr-SJPavZB7TWT2-16" value="SIGN OUT" style="text;html=1;align=center;verticalAlign=middle;whiteSpace=wrap;rounded=0;" vertex="1" parent="1">
          <mxGeometry x="55" y="422" width="60" height="30" as="geometry" />
        </mxCell>
        <mxCell id="JP3Zxvr-SJPavZB7TWT2-17" value="PP" style="text;html=1;align=center;verticalAlign=middle;whiteSpace=wrap;rounded=0;" vertex="1" parent="1">
          <mxGeometry x="37" y="176" width="60" height="30" as="geometry" />
        </mxCell>
        <mxCell id="JP3Zxvr-SJPavZB7TWT2-18" value="" style="rounded=0;whiteSpace=wrap;html=1;" vertex="1" parent="1">
          <mxGeometry x="199" y="200" width="600" height="160" as="geometry" />
        </mxCell>
        <mxCell id="JP3Zxvr-SJPavZB7TWT2-20" value="&lt;h1 style=&quot;margin-top: 0px;&quot;&gt;&lt;span style=&quot;background-color: initial;&quot;&gt;WELCOME @USERNAME&lt;/span&gt;&lt;/h1&gt;&lt;h1 style=&quot;margin-top: 0px;&quot;&gt;&lt;span style=&quot;background-color: initial; font-size: 12px; font-weight: normal;&quot;&gt;HERE INFO ABOUT THEIR SCHEDULED EXAM/TEST WILL BE VISIBLE ALONG WITH ANY OVERDUE EXAM&lt;/span&gt;&lt;br&gt;&lt;/h1&gt;" style="text;html=1;whiteSpace=wrap;overflow=hidden;rounded=0;" vertex="1" parent="1">
          <mxGeometry x="250" y="220" width="440" height="120" as="geometry" />
        </mxCell>
        <mxCell id="JP3Zxvr-SJPavZB7TWT2-21" value="" style="endArrow=classic;html=1;rounded=0;exitX=0.5;exitY=0;exitDx=0;exitDy=0;entryX=0.5;entryY=0;entryDx=0;entryDy=0;" edge="1" parent="1" source="cQwfHmocI9U_DyVpqtuw-16" target="JP3Zxvr-SJPavZB7TWT2-3">
          <mxGeometry relative="1" as="geometry">
            <mxPoint x="80" y="75" as="sourcePoint" />
            <mxPoint x="40" y="75" as="targetPoint" />
            <Array as="points">
              <mxPoint x="224" y="75" />
              <mxPoint x="95" y="75" />
            </Array>
          </mxGeometry>
        </mxCell>
        <mxCell id="JP3Zxvr-SJPavZB7TWT2-23" value="Source" style="edgeLabel;resizable=0;html=1;;align=left;verticalAlign=bottom;" connectable="0" vertex="1" parent="JP3Zxvr-SJPavZB7TWT2-21">
          <mxGeometry x="-1" relative="1" as="geometry">
            <mxPoint x="3" y="-1" as="offset" />
          </mxGeometry>
        </mxCell>
        <mxCell id="JP3Zxvr-SJPavZB7TWT2-24" value="Target" style="edgeLabel;resizable=0;html=1;;align=right;verticalAlign=bottom;" connectable="0" vertex="1" parent="JP3Zxvr-SJPavZB7TWT2-21">
          <mxGeometry x="1" relative="1" as="geometry">
            <mxPoint x="-10" y="-3" as="offset" />
          </mxGeometry>
        </mxCell>
        <mxCell id="JP3Zxvr-SJPavZB7TWT2-30" value="IT WILL OVERLAP ON MAIN DASHBORAD" style="edgeLabel;html=1;align=center;verticalAlign=middle;resizable=0;points=[];" vertex="1" connectable="0" parent="JP3Zxvr-SJPavZB7TWT2-21">
          <mxGeometry x="0.0368" y="2" relative="1" as="geometry">
            <mxPoint y="-14" as="offset" />
          </mxGeometry>
        </mxCell>
        <mxCell id="JP3Zxvr-SJPavZB7TWT2-25" value="&lt;h1 style=&quot;margin-top: 0px;&quot;&gt;TEST DETAILS&lt;/h1&gt;&lt;p&gt;SUBJECT: XYZ&lt;/p&gt;&lt;p&gt;TIME: X MINUTES&lt;/p&gt;" style="text;html=1;whiteSpace=wrap;overflow=hidden;rounded=0;" vertex="1" parent="1">
          <mxGeometry x="250" y="360" width="180" height="120" as="geometry" />
        </mxCell>
        <mxCell id="JP3Zxvr-SJPavZB7TWT2-26" value="TIMER WHICH SHOWS TIME LEFT TO START THE TEST" style="rounded=0;whiteSpace=wrap;html=1;" vertex="1" parent="1">
          <mxGeometry x="540" y="374" width="210" height="60" as="geometry" />
        </mxCell>
        <mxCell id="JP3Zxvr-SJPavZB7TWT2-28" value="START TEST BUTTON" style="rounded=0;whiteSpace=wrap;html=1;" vertex="1" parent="1">
          <mxGeometry x="585" y="450" width="130" height="30" as="geometry" />
        </mxCell>
        <mxCell id="JP3Zxvr-SJPavZB7TWT2-29" value="" style="triangle;whiteSpace=wrap;html=1;" vertex="1" parent="1">
          <mxGeometry x="716" y="447" width="22" height="36" as="geometry" />
        </mxCell>
      </root>
    </mxGraphModel>
  </diagram>
</mxfile>
